<?xml version="1.0" encoding="utf-8"?>
<!-- Generator: Adobe Illustrator 23.0.1, SVG Export Plug-In . SVG Version: 6.00 Build 0)  -->
<svg version="1.1" id="Capa_1" xmlns="http://www.w3.org/2000/svg" xmlns:xlink="http://www.w3.org/1999/xlink" x="0px" y="0px"
	 viewBox="0 0 512 512" style="enable-background:new 0 0 512 512;" xml:space="preserve">
<style type="text/css">
	.st0{fill:#1E9B3B;}
</style>
<g>
	<path class="st0" d="M436.8,75.2C336.5-25.1,175.5-25.1,75.2,75.2c-100.3,100.3-100.3,261.2,0,361.6
		c100.3,100.3,261.2,100.3,361.6,0C537.1,336.5,537.1,175.5,436.8,75.2z M241,136c0-8.3,6.7-15,15-15c8.3,0,15,6.7,15,15v80
		c0,8.3-6.7,15-15,15c-8.3,0-15-6.7-15-15L241,136z M256,367c-61.2,0-111-49.8-111-111c0-32,13.8-62.5,38-83.6
		c6.2-5.5,15.7-4.8,21.2,1.4c5.5,6.2,4.8,15.7-1.4,21.2c-17.6,15.4-27.7,37.6-27.7,61c0,44.7,36.3,81,81,81c44.7,0,81-36.3,81-81
		c0-23.1-9.9-45.2-27.3-60.6c-6.2-5.5-6.8-15-1.3-21.2c5.5-6.2,15-6.8,21.2-1.3c23.7,21.1,37.3,51.3,37.3,83
		C367,317.2,317.2,367,256,367L256,367z"/>
</g>
</svg>
